<svg width="40" height="40" viewBox="0 0 40 40" fill="none" xmlns="http://www.w3.org/2000/svg">
<path d="M25.948 39.992C25.5576 39.992 25.1673 39.9331 24.777 39.835C23.6245 39.5014 22.658 38.736 22.0446 37.6566L21.8216 37.2641C20.7249 35.2623 19.2193 35.2623 18.1227 37.2641L17.9182 37.637C17.3048 38.736 16.3383 39.521 15.1859 39.835C14.0149 40.1686 12.8067 39.992 11.7844 39.3444L8.58736 37.4015C8.02561 37.0616 7.53282 36.6082 7.13719 36.0671C6.74155 35.526 6.45083 34.9078 6.28165 34.248C6.11247 33.5882 6.06814 32.8996 6.15122 32.2217C6.2343 31.5437 6.44314 30.8897 6.7658 30.2971C7.30483 29.2962 7.45353 28.3934 7.13755 27.8243C6.82156 27.2552 6.0223 26.9216 4.92565 26.9216C2.2119 26.9216 0 24.5861 0 21.7208V18.2668C0 15.4015 2.2119 13.0661 4.92565 13.0661C6.0223 13.0661 6.82156 12.7325 7.13755 12.1633C7.45353 11.5942 7.32342 10.6914 6.7658 9.69055C6.11524 8.49341 5.94796 7.08038 6.28253 5.74586C6.6171 4.39172 7.43494 3.27308 8.58736 2.58619L11.803 0.64329C13.9033 -0.671604 16.6729 0.0937822 17.9368 2.35069L18.1599 2.7432C19.2565 4.74498 20.7621 4.74498 21.8587 2.7432L22.0632 2.37032C23.3271 0.0937819 26.0967 -0.671604 28.2156 0.662916L31.4126 2.60582C31.9744 2.94566 32.4672 3.3991 32.8628 3.9402C33.2584 4.4813 33.5492 5.09944 33.7184 5.75927C33.8875 6.41911 33.9319 7.10768 33.8488 7.78561C33.7657 8.46354 33.5569 9.11753 33.2342 9.71017C32.6952 10.7111 32.5465 11.6138 32.8625 12.183C33.1784 12.7521 33.9777 13.0857 35.0744 13.0857C37.7881 13.0857 40 15.4211 40 18.2864V21.7405C40 24.6058 37.7881 26.9412 35.0744 26.9412C33.9777 26.9412 33.1784 27.2748 32.8625 27.8439C32.5465 28.4131 32.6766 29.3158 33.2342 30.3167C33.8848 31.5139 34.0706 32.9269 33.7175 34.2614C33.5559 34.9254 33.2683 35.5478 32.8721 36.0909C32.4759 36.6341 31.9794 37.0866 31.4126 37.4211L28.197 39.364C27.4907 39.7761 26.7286 39.992 25.948 39.992ZM19.9814 32.7306C21.6357 32.7306 23.1784 33.8297 24.2379 35.7726L24.4424 36.1454C24.6654 36.5576 25.0372 36.8519 25.4833 36.9697C25.9294 37.0875 26.3755 37.0286 26.7472 36.7931L29.9628 34.8305C30.4536 34.5317 30.8128 34.0404 30.9625 33.4635C31.1121 32.8865 31.0401 32.2706 30.7621 31.7494C29.7026 29.8261 29.5725 27.8439 30.3903 26.3328C31.2082 24.8216 32.8996 23.9581 35.0186 23.9581C36.2082 23.9581 37.1561 22.9572 37.1561 21.7012V18.2472C37.1561 17.0108 36.2082 15.9903 35.0186 15.9903C32.8996 15.9903 31.2082 15.1268 30.3903 13.6156C29.5725 12.1045 29.7026 10.1223 30.7621 8.19903C31.0409 7.68877 31.1152 7.08039 30.9665 6.49163C30.8178 5.90287 30.4647 5.43186 29.9814 5.11786L26.7658 3.17495C26.5718 3.05485 26.3573 2.97633 26.1345 2.94388C25.9117 2.91143 25.6851 2.92569 25.4676 2.98585C25.25 3.046 25.0459 3.15087 24.8667 3.29445C24.6876 3.43803 24.5371 3.6175 24.4238 3.82259L24.2193 4.19547C23.1599 6.13837 21.6171 7.23739 19.9628 7.23739C18.3085 7.23739 16.7658 6.13837 15.7063 4.19547L15.5019 3.80296C15.2709 3.40189 14.9008 3.11183 14.4703 2.99454C14.0398 2.87725 13.583 2.94198 13.197 3.17495L9.98141 5.13748C9.49066 5.43636 9.13144 5.92763 8.98179 6.50456C8.83213 7.08149 8.90414 7.69746 9.18216 8.21865C10.2416 10.1419 10.3717 12.1241 9.5539 13.6352C8.73606 15.1464 7.04461 16.0099 4.92565 16.0099C3.73606 16.0099 2.7881 17.0108 2.7881 18.2668V21.7208C2.7881 22.9572 3.73606 23.9778 4.92565 23.9778C7.04461 23.9778 8.73606 24.8413 9.5539 26.3524C10.3717 27.8636 10.2416 29.8457 9.18216 31.769C8.90335 32.2793 8.829 32.8876 8.97769 33.4764C9.12639 34.0652 9.47955 34.5362 9.96283 34.8502L13.1784 36.7931C13.5688 37.0482 14.0335 37.1071 14.461 36.9893C14.9071 36.8716 15.2788 36.5576 15.5204 36.1454L15.7249 35.7726C16.7844 33.8493 18.3271 32.7306 19.9814 32.7306Z" fill="black"/>
</svg>
