<svg width="40" height="40" viewBox="0 0 40 40" fill="none" xmlns="http://www.w3.org/2000/svg">
<path d="M20.3176 18.645H19.8639C13.8063 18.4829 9.26973 14.3833 9.26973 9.3341C9.26973 4.19224 14.0998 0 20.024 0C25.9482 0 30.7783 4.19224 30.7783 9.3341C30.7838 11.7533 29.7026 14.079 27.7644 15.8175C25.8262 17.556 23.1835 18.5703 20.3976 18.645H20.3176ZM19.9973 3.45107C16.2613 3.45107 13.2459 6.09149 13.2459 9.31094C13.2378 10.8275 13.9102 12.2872 15.1206 13.381C16.3309 14.4747 17.9843 15.1167 19.7305 15.1708C19.9341 15.1464 20.1406 15.1464 20.3442 15.1708C22.0729 15.0908 23.7005 14.4386 24.8918 13.3486C26.0832 12.2585 26.7478 10.8135 26.7488 9.31094C26.7488 6.09149 23.7333 3.45107 19.9973 3.45107ZM19.9973 40C12.8189 40 5.96072 37.6838 0.650286 33.4684C0.42057 33.2849 0.243138 33.0576 0.131991 32.8043C0.0208442 32.5511 -0.0209745 32.2789 0.00983289 32.0093C0.356745 29.253 2.33148 26.6821 5.6138 24.7829C13.5661 20.1969 26.4552 20.1969 34.3809 24.7829C37.6632 26.7053 39.6379 29.253 39.9848 32.0093C40.0649 32.5651 39.8247 33.0979 39.3444 33.4684C34.0665 37.6733 27.1616 40.0044 19.9973 40ZM4.19947 31.546C8.62731 34.7661 14.2207 36.5292 19.9973 36.5258C25.7881 36.5258 31.3654 34.7655 35.7952 31.546C35.3149 30.1332 34.0339 28.7666 32.1393 27.6549C25.5746 23.8564 14.4467 23.8564 7.82871 27.6549C5.93403 28.7666 4.67981 30.1332 4.19947 31.546Z" fill="black"/>
</svg>
