<svg width="38" height="25" viewBox="0 0 38 25" fill="none" xmlns="http://www.w3.org/2000/svg">
<path d="M2.08333 25H35.4167C36.5625 25 37.5 24.0625 37.5 22.9167C37.5 21.7708 36.5625 20.8333 35.4167 20.8333H2.08333C0.9375 20.8333 0 21.7708 0 22.9167C0 24.0625 0.9375 25 2.08333 25ZM2.08333 14.5833H35.4167C36.5625 14.5833 37.5 13.6458 37.5 12.5C37.5 11.3542 36.5625 10.4167 35.4167 10.4167H2.08333C0.9375 10.4167 0 11.3542 0 12.5C0 13.6458 0.9375 14.5833 2.08333 14.5833ZM0 2.08333C0 3.22917 0.9375 4.16667 2.08333 4.16667H35.4167C36.5625 4.16667 37.5 3.22917 37.5 2.08333C37.5 0.9375 36.5625 0 35.4167 0H2.08333C0.9375 0 0 0.9375 0 2.08333Z" fill="#5A7CDB"/>
</svg>
