<svg width="35" height="31" viewBox="0 0 35 31" fill="none" xmlns="http://www.w3.org/2000/svg">
<path d="M17.4375 18.8004L4.44225 30.3517C3.95603 30.7839 3.33721 31 2.58579 31C1.83436 31 1.21554 30.7839 0.729324 30.3517C0.243107 29.9195 0 29.3694 0 28.7015C0 28.0336 0.243107 27.4835 0.729324 27.0513L13.7246 15.5L0.729324 3.94867C0.243107 3.51647 0 2.96641 0 2.29848C0 1.63054 0.243107 1.08048 0.729324 0.648288C1.21554 0.216095 1.83436 0 2.58579 0C3.33721 0 3.95603 0.216095 4.44225 0.648288L17.4375 12.1996L30.4327 0.648288C30.9189 0.216095 31.5378 0 32.2892 0C33.0406 0 33.6594 0.216095 34.1457 0.648288C34.6319 1.08048 34.875 1.63054 34.875 2.29848C34.875 2.96641 34.6319 3.51647 34.1457 3.94867L21.1504 15.5L34.1457 27.0513C34.6319 27.4835 34.875 28.0336 34.875 28.7015C34.875 29.3694 34.6319 29.9195 34.1457 30.3517C33.6594 30.7839 33.0406 31 32.2892 31C31.5378 31 30.9189 30.7839 30.4327 30.3517L17.4375 18.8004Z" fill="#E0D3D3"/>
</svg>
