<svg width="40" height="40" viewBox="0 0 40 40" fill="none" xmlns="http://www.w3.org/2000/svg">
<path d="M30.7721 40H9.22791C4.13023 40 0 35.8466 0 30.7434V16.9423C0 14.4093 1.56279 11.2244 3.57209 9.65991L13.6 1.83742C16.614 -0.509325 21.4326 -0.621075 24.5581 1.57667L36.0558 9.64129C38.2698 11.1872 40 14.5024 40 17.203V30.762C40 35.8466 35.8698 40 30.7721 40ZM15.3116 4.03517L5.28372 11.8577C3.96279 12.9007 2.7907 15.266 2.7907 16.9423V30.7434C2.79069 32.4542 3.4683 34.0953 4.67498 35.3068C5.88166 36.5182 7.51894 37.2013 9.22791 37.2063H30.7721C34.3256 37.2063 37.2093 34.3194 37.2093 30.762V17.203C37.2093 15.415 35.9256 12.9379 34.4558 11.9322L22.9581 3.86754C20.8372 2.37755 17.3395 2.45205 15.3116 4.03517Z" fill="#39C859"/>
</svg>
