<svg width="40" height="40" viewBox="0 0 40 40" fill="none" xmlns="http://www.w3.org/2000/svg">
<path d="M25.5814 40H14.4186C4.31628 40 0 35.6837 0 25.5814V14.4186C0 4.31628 4.31628 0 14.4186 0H25.5814C35.6837 0 40 4.31628 40 14.4186V25.5814C40 35.6837 35.6837 40 25.5814 40ZM14.4186 2.7907C5.84186 2.7907 2.7907 5.84186 2.7907 14.4186V25.5814C2.7907 34.1581 5.84186 37.2093 14.4186 37.2093H25.5814C34.1581 37.2093 37.2093 34.1581 37.2093 25.5814V14.4186C37.2093 5.84186 34.1581 2.7907 25.5814 2.7907H14.4186Z" fill="#39C859"/>
</svg>
