<svg width="40" height="40" viewBox="0 0 40 40" fill="none" xmlns="http://www.w3.org/2000/svg">
<path d="M6.31579 32H10.5263V36H35.7895V4H10.5263V8H6.31579V2C6.31579 1.46957 6.53759 0.960859 6.93241 0.585786C7.32722 0.210714 7.8627 0 8.42105 0H37.8947C38.4531 0 38.9886 0.210714 39.3834 0.585786C39.7782 0.960859 40 1.46957 40 2V38C40 38.5304 39.7782 39.0391 39.3834 39.4142C38.9886 39.7893 38.4531 40 37.8947 40H8.42105C7.8627 40 7.32722 39.7893 6.93241 39.4142C6.53759 39.0391 6.31579 38.5304 6.31579 38V32ZM10.5263 18H25.2632V22H10.5263V28L0 20L10.5263 12V18Z" fill="black"/>
</svg>
