<svg width="40" height="40" viewBox="0 0 40 40" fill="none" xmlns="http://www.w3.org/2000/svg">
<path d="M23.7995 36.013L23.7989 36.0119C22.7936 34.1683 21.392 33.2306 19.9814 33.2306C18.573 33.2306 17.1704 34.1853 16.1633 36.013H23.7995ZM23.7995 36.013L24.0026 36.3834C24.0029 36.3839 24.0032 36.3844 24.0035 36.3849C24.2911 36.9155 24.7743 37.2997 25.3557 37.4531C25.9231 37.6029 26.5127 37.532 27.0111 37.2178L30.2229 35.2576C30.8291 34.8884 31.2655 34.2865 31.4464 33.589C31.6273 32.8919 31.5409 32.147 31.2032 31.514L31.2033 31.514L31.2 31.5081C30.1978 29.6888 30.115 27.8921 30.8301 26.5708C31.5382 25.2623 33.031 24.4581 35.0186 24.4581C36.5096 24.4581 37.6561 23.2074 37.6561 21.7012V18.2472C37.6561 16.7635 36.5123 15.4903 35.0186 15.4903C33.031 15.4903 31.5382 14.6861 30.8301 13.3776C30.115 12.0563 30.1978 10.2596 31.2 8.44028L31.2008 8.43878C31.5423 7.81384 31.6297 7.07559 31.4513 6.36919C31.2706 5.65371 30.8388 5.07864 30.2538 4.69859L30.247 4.69413L30.24 4.68991L27.0265 2.7483C26.7757 2.59349 26.4971 2.49142 26.2066 2.4491C25.915 2.40663 25.6185 2.42535 25.3343 2.50393C25.0502 2.5825 24.7852 2.71903 24.554 2.90433C24.3229 3.08958 24.1304 3.31978 23.9862 3.58076L23.9854 3.58219L23.7809 3.95507L23.7804 3.95609C22.775 5.79973 21.3735 6.73739 19.9628 6.73739C18.5532 6.73739 17.1527 5.80111 16.1475 3.96016L15.9453 3.57197L15.9404 3.56259L15.9351 3.55343C15.641 3.04268 15.1648 2.66556 14.6017 2.51213C14.0378 2.35847 13.4403 2.4441 12.9386 2.74689L12.9365 2.74816L9.72133 4.71045L23.7995 36.013ZM15.0544 39.3526L15.0544 39.3526L15.0489 39.3541C14.015 39.6487 12.954 39.4934 12.052 38.922L12.052 38.9219L12.0441 38.9171L8.84703 36.9742L8.84617 36.9737C8.34219 36.6688 7.89826 36.2608 7.54081 35.772C7.18332 35.283 6.91963 34.7231 6.76598 34.1238C6.61232 33.5245 6.57199 32.8987 6.64751 32.2825C6.72302 31.6663 6.91275 31.0728 7.20494 30.5362L7.20602 30.5342C7.49438 29.9987 7.69044 29.4681 7.76647 28.975C7.84204 28.4848 7.80388 27.9944 7.57469 27.5816C7.12372 26.7693 6.08088 26.4216 4.92565 26.4216C2.51329 26.4216 0.5 24.3359 0.5 21.7208V18.2668C0.5 15.6517 2.51329 13.5661 4.92565 13.5661C6.08088 13.5661 7.12372 13.2183 7.57469 12.406C8.02128 11.6017 7.78322 10.4905 7.20393 9.44962C6.61599 8.36635 6.46272 7.08323 6.76752 5.86746L6.76793 5.86579C7.07173 4.63621 7.81016 3.63152 8.84336 3.01569L8.84336 3.0157L8.84593 3.01414L12.0615 1.07124L12.0616 1.07129L12.0683 1.06709C13.9099 -0.0858074 16.3665 0.569985 17.5005 2.59501L17.5021 2.59772L17.7233 2.98691C18.3009 4.03969 19.0816 4.74453 20.0093 4.74453C20.938 4.74453 21.7194 4.03821 22.2972 2.98359C22.2972 2.98354 22.2972 2.98348 22.2972 2.98343L22.5003 2.61302C22.5006 2.61263 22.5008 2.61223 22.501 2.61184C23.6351 0.570531 26.0892 -0.0854139 27.9492 1.086L27.9491 1.08605L27.9559 1.0902L31.153 3.0331L31.1538 3.03362C31.6578 3.33852 32.1017 3.74644 32.4592 4.23532C32.8167 4.72424 33.0804 5.2842 33.234 5.88346C33.3877 6.48274 33.428 7.10857 33.3525 7.72479C33.277 8.34101 33.0872 8.93443 32.7951 9.47109L32.794 9.47309C32.5056 10.0085 32.3096 10.5392 32.2335 11.0323C32.158 11.5225 32.1961 12.0129 32.4253 12.4257C32.8763 13.2379 33.9191 13.5857 35.0744 13.5857C37.4867 13.5857 39.5 15.6713 39.5 18.2864V21.7405C39.5 24.3556 37.4867 26.4412 35.0744 26.4412C33.9191 26.4412 32.8763 26.789 32.4253 27.6012C31.9788 28.4055 32.2167 29.5166 32.7959 30.5573C33.3863 31.6449 33.5536 32.9263 33.2341 34.1335L33.234 34.1335L33.2317 34.1432C33.0853 34.7446 32.8251 35.3069 32.4682 35.7963C32.1112 36.2856 31.6653 36.6914 31.1585 36.9905L31.1541 36.9931L27.945 38.9321C27.944 38.9328 27.9429 38.9334 27.9418 38.934C27.3074 39.3035 26.6327 39.492 25.948 39.492C25.6105 39.492 25.2647 39.4415 24.9075 39.3523C23.887 39.0544 23.0283 38.3757 22.4793 37.4096L22.2582 37.0204C21.6805 35.9676 20.8998 35.2627 19.9721 35.2627C19.0434 35.2627 18.2621 35.9691 17.6843 37.0237C17.6842 37.0237 17.6842 37.0238 17.6842 37.0238L17.4816 37.3933C17.4813 37.3939 17.481 37.3944 17.4807 37.395C16.9274 38.3852 16.0665 39.0768 15.0544 39.3526ZM15.9589 36.3858L16.1629 36.0138L9.72093 4.71069C9.11491 5.07993 8.67869 5.68168 8.4978 6.37902C8.31697 7.07613 8.40336 7.82102 8.741 8.45398L8.74096 8.454L8.74421 8.4599C9.74641 10.2792 9.82926 12.076 9.11417 13.3972C8.406 14.7057 6.91322 15.5099 4.92565 15.5099C3.43467 15.5099 2.2881 16.7606 2.2881 18.2668V21.7208C2.2881 23.2045 3.43192 24.4778 4.92565 24.4778C6.91322 24.4778 8.406 25.2819 9.11417 26.5904C9.82926 27.9117 9.74641 29.7085 8.74421 31.5277L8.74339 31.5292C8.40191 32.1542 8.31451 32.8924 8.49292 33.5988C8.67362 34.3143 9.10548 34.8894 9.69041 35.2694L9.69726 35.2739L9.70426 35.2781L12.9128 37.2167C13.4268 37.5494 14.0361 37.6242 14.5912 37.4721C15.1845 37.3146 15.6555 36.9037 15.9518 36.3983L15.9554 36.3921L15.9589 36.3858Z" fill="#39C859" stroke="#39C859"/>
</svg>
